Coordinates
version=1
nRows=20
nColumns=34
inDegrees=yes

Units are S.I. units (second, meters, Newtons, ...)
If the header above contains a line with 'inDegrees', this indicates whether rotational values are in degrees (yes) or radians (no).

endheader
time	pelvis_tilt	pelvis_list	pelvis_rotation	pelvis_tx	pelvis_ty	pelvis_tz	hip_flexion_r	hip_adduction_r	hip_rotation_r	knee_angle_r	ankle_angle_r	subtalar_angle_r	mtp_angle_r	hip_flexion_l	hip_adduction_l	hip_rotation_l	knee_angle_l	ankle_angle_l	subtalar_angle_l	mtp_angle_l	lumbar_extension	lumbar_bending	lumbar_rotation	arm_flex_r	arm_add_r	arm_rot_r	elbow_flex_r	pro_sup_r	arm_flex_l	arm_add_l	arm_rot_l	elbow_flex_l	pro_sup_l
      3.73333330	    -18.40798794	     -1.09516569	      2.45011613	      0.62456055	      1.11834132	     -0.09888623	     32.21949476	     -9.31287710	    -21.94871831	     20.69599681	      6.12679080	    -17.43746063	      0.00000000	     35.69201101	     -7.94822743	    -13.32619855	     22.43195800	      2.70021461	     -6.85656221	      0.00000000	     -9.08407868	      0.60335039	     -7.66412090	    100.19238746	      7.63905004	     41.75044655	     31.85307425	     69.22413861	     97.92290537	     -4.39792003	     47.67473888	     39.62042157	     20.03085387
      3.75000000	    -17.46068099	     -1.06966937	      2.17671566	      0.63339289	      1.11924396	     -0.10393243	     29.83499338	     -8.80957198	    -22.09291265	     18.55553535	      6.08081909	    -16.00768829	      0.00000000	     33.49016577	     -7.71962977	    -13.23972986	     20.86438528	      1.99672282	     -7.30394590	      0.00000000	     -9.24861800	      0.75302076	     -6.06579687	     99.07330369	      6.03888792	     42.12449455	     32.87203630	     68.87831305	     96.47460095	     -3.02059984	     46.91086094	     40.16294090	     19.30827431
      3.76666670	    -16.36661903	     -0.91304282	      1.79136159	      0.64177481	      1.12485986	     -0.10308367	     27.22119328	     -8.34428195	    -22.11592957	     16.50795276	      5.34982161	    -15.02116169	      0.00000000	     30.95539361	     -7.45051865	    -12.89496932	     19.30741441	      1.31764908	     -7.43636411	      0.00000000	     -9.35856447	      0.69615379	     -4.42587131	     98.02809463	      4.72858279	     42.38667103	     32.72485644	     68.73151922	     95.16213255	     -1.76718297	     46.45182049	     40.32111683	     18.97071672
      3.78333330	    -15.19933387	     -0.77022474	      1.19613651	      0.65015590	      1.12728072	     -0.10283646	     24.51606549	     -7.79522637	    -22.15364885	     14.23505559	      4.78037579	    -14.01989459	      0.00000000	     28.23566104	     -7.22564286	    -12.83150653	     17.58629482	      0.67995852	     -8.25956914	      0.00000000	     -8.86023977	      0.38510973	     -3.89227641	     96.19321356	      4.39309266	     42.80041509	     32.13514898	     68.52124745	     92.98138502	     -1.05619315	     45.53054389	     39.67746130	     18.52033361
      3.80000000	    -14.14278753	     -0.90625872	      0.81799539	      0.65310869	      1.12724841	     -0.09979817	     22.15720869	     -6.96837175	    -21.82647264	     12.31715481	      4.43249754	    -13.41395721	      0.00000000	     25.81624681	     -7.25098252	    -12.55292746	     15.85025851	      0.18742799	     -8.96042885	      0.00000000	     -8.20761148	      0.48416939	     -2.98914200	     94.39476369	      3.39604008	     43.07610202	     32.22144584	     68.22100129	     90.91342123	     -0.20706878	     44.52630729	     39.68454306	     18.25293617
      3.81666670	    -13.14400789	     -1.16662928	      1.04640165	      0.66167534	      1.13355217	     -0.10089191	     19.88415493	     -6.32043034	    -21.75206019	     10.71426559	      4.02069295	    -12.94992898	      0.00000000	     23.72104989	     -7.23570006	    -12.04809900	     14.42823272	     -0.10058319	     -8.99410166	      0.00000000	     -7.65457093	      0.71208702	     -2.67738538	     92.25073171	      2.21887728	     42.98466826	     33.22603763	     67.91927465	     88.62814910	      0.21416087	     43.68215678	     40.48155105	     18.17600648
      3.83333330	    -11.92004209	     -1.38886865	      1.61695315	      0.67006897	      1.14305484	     -0.10183852	     17.31100840	     -5.81397621	    -21.71605114	      9.03317371	      3.71100142	    -12.48660570	      0.00000000	     21.25920152	     -7.09250481	    -11.86313275	     12.58895499	     -0.57088413	     -8.52458097	      0.00000000	     -7.42922014	      0.96813380	     -2.47209426	     89.63754795	      0.82997227	     42.38656748	     34.61517314	     67.61516636	     86.02122598	      0.69621961	     42.36556474	     41.68377960	     18.22523459
      3.85000000	    -11.35244479	     -1.44060510	      1.74448508	      0.66856474	      1.14255904	     -0.10240103	     15.86357513	     -5.48447755	    -21.75031983	      7.80692944	      3.05217826	    -12.21645720	      0.00000000	     19.88049109	     -6.93678015	    -11.90537028	     11.35358946	     -0.90368179	     -8.32265080	      0.00000000	     -7.10596756	      0.97605446	     -2.03018281	     88.26938908	      0.26794101	     42.05972312	     34.60857402	     67.49743408	     84.75484429	      1.17773463	     42.09672937	     41.90357038	     18.29889802
      3.86666670	    -10.16587394	     -1.43611654	      1.88464237	      0.67736274	      1.14631792	     -0.10230378	     13.72194083	     -5.23482299	    -21.84862666	      6.67202411	      2.63053938	    -12.10647726	      0.00000000	     17.83088799	     -6.77837023	    -11.93565749	     10.27725073	     -1.10546518	     -7.85307112	      0.00000000	     -7.64798255	      0.94055511	     -1.69542966	     86.70211831	     -0.52975308	     40.75693707	     35.90218225	     67.20124530	     83.43058936	      1.77297928	     40.83191681	     42.17131823	     18.45056314
      3.88333330	     -9.24065056	     -1.40992544	      1.98401447	      0.69183952	      1.14980711	     -0.10107281	     11.68828104	     -5.00617289	    -22.27127701	      5.69345563	      1.90575877	    -12.06731360	      0.00000000	     15.89384289	     -6.69771217	    -12.15361442	      9.32550430	     -1.20142879	     -6.73368751	      0.00000000	     -7.44218656	      0.77544472	     -1.43221991	     84.46178704	     -0.88750675	     38.79946770	     36.88232164	     66.82645610	     81.72872325	      2.13248487	     39.83782754	     42.42056466	     18.82426955
      3.90000000	     -8.51694980	     -1.46616721	      1.83590802	      0.68555670	      1.15187461	     -0.09813882	     10.61915965	     -4.78334303	    -22.23300219	      5.51994404	      1.19122497	    -13.14228744	      0.00000000	     15.11285797	     -6.90159298	    -11.84514705	      9.80390890	     -1.36773690	     -6.68366720	      0.00000000	     -7.48521084	      0.59739097	     -0.89803674	     82.93942644	     -0.94846559	     36.69127057	     37.04570706	     66.48557534	     80.52093424	      2.43509772	     39.29674345	     42.63233211	     19.36839161
      3.91666670	     -7.34434920	     -1.18312467	      1.71293804	      0.70991477	      1.15268273	     -0.10150444	      8.40315264	     -4.89819439	    -22.66609825	      4.77502078	      0.68836272	    -13.04187580	      0.00000000	     12.86664865	     -6.64775445	    -11.90622185	      9.06912104	     -1.16835278	     -5.54743103	      0.00000000	     -7.47525222	      0.26292530	     -0.86469704	     79.98507129	     -1.09078146	     34.47155127	     39.50231534	     66.24022940	     78.45506827	      2.16906326	     38.61118453	     43.77790351	     19.85740763
      3.93333330	     -6.57019829	     -1.07271720	      1.46038417	      0.71342747	      1.15141345	     -0.10337435	      6.97350469	     -4.87327743	    -22.77501588	      4.34989300	      0.02215310	    -13.75686597	      0.00000000	     10.90131910	     -6.43554533	    -11.71165918	      8.00943854	     -0.53399116	     -5.12218916	      0.00000000	     -6.40672036	      0.42472643	     -1.97908943	     74.67848188	     -1.57205715	     31.10323460	     44.98442606	     66.09076522	     75.30169070	      0.39132265	     37.48350859	     45.81701939	     20.37956452
      3.95000000	     -5.69253933	     -0.96427049	      1.15120716	      0.71765578	      1.14877361	     -0.10139639	      5.54405981	     -4.80832446	    -22.39022082	      3.87667296	     -0.28186954	    -14.50329552	      0.00000000	      8.77096953	     -6.20046435	    -11.45613098	      6.67501164	     -0.02581637	     -5.09151208	      0.00000000	     -5.55843729	      0.43470576	     -2.98619426	     68.22437357	     -1.94262592	     27.14161583	     52.40625207	     66.59426974	     72.21751667	     -1.10294343	     35.97135794	     48.07516945	     21.29473232
      3.96666670	     -4.97333687	     -0.95116365	      1.12033621	      0.72629558	      1.14927180	     -0.10562366	      4.17264062	     -4.68295776	    -22.11008078	      3.20298556	     -0.51168529	    -15.14399959	      0.00000000	      6.84111219	     -5.97251400	    -10.82621270	      5.34295740	      0.59834327	     -4.83898139	      0.00000000	     -4.92327017	      0.66835008	     -3.88970480	     63.66816148	     -3.21417585	     26.18941273	     60.07493685	     67.41156906	     69.86338986	     -2.18131823	     35.05169006	     50.64023476	     22.19541220
      3.98333330	     -4.08973572	     -1.03110273	      1.20390836	      0.73561306	      1.14984778	     -0.10189577	      2.56673810	     -4.37041866	    -21.68218231	      2.55047463	     -0.49469132	    -15.86786744	      0.00000000	      4.84702124	     -5.89343965	     -9.96052740	      4.12714765	      1.31906330	     -4.49939836	      0.00000000	     -4.70646010	      0.85783508	     -4.45843965	     60.60346819	     -4.17393541	     25.35750669	     64.72167361	     67.94808323	     68.17493298	     -2.85960798	     34.09405671	     52.27649413	     22.88544501
      4.00000000	     -3.66457012	     -1.24040610	      1.30800536	      0.73980731	      1.14729892	     -0.10400756	      1.48661929	     -3.98783113	    -21.44895719	      2.04088175	     -0.37005265	    -16.31729022	      0.00000000	      3.42328660	     -5.98021784	     -9.15588177	      3.06624743	      2.00904877	     -4.11167058	      0.00000000	     -3.88019068	      1.02472476	     -5.14132177	     59.01822987	     -4.29370892	     25.20943391	     65.56736026	     68.10716374	     66.97450854	     -3.38779665	     33.90016279	     52.13324470	     23.12938633
      4.01666670	     -3.21567287	     -1.32854194	      1.42141264	      0.74416080	      1.14858319	     -0.10240027	      0.38923781	     -3.69168431	    -20.97664374	      1.51424717	      0.17529587	    -16.66665685	      0.00000000	      2.23458630	     -6.04009309	     -8.37279091	      2.46234231	      2.81305190	     -4.01526443	      0.00000000	     -3.20340080	      1.03506209	     -5.45193019	     57.42296404	     -4.48157783	     25.15878197	     65.69853606	     68.13946696	     65.74460840	     -3.63979587	     33.96014566	     52.11960300	     23.21942992
      4.03333330	     -2.69459312	     -1.42197641	      1.59216979	      0.74397400	      1.15538939	     -0.09791423	     -0.73982176	     -3.29272860	    -20.60802732	      0.81108618	     -0.07612492	    -16.89785272	      0.00000000	      1.18599908	     -6.23506170	     -7.78016784	      2.01793909	      3.07015623	     -3.72433267	      0.00000000	     -3.22230336	      0.86361203	     -5.93121209	     55.86460022	     -4.11587350	     24.30759311	     66.16157495	     68.14999496	     64.72918896	     -4.09450335	     33.71139113	     52.19436135	     23.45652479
      4.05000000	     -2.30425222	     -1.59636896	      1.63079287	      0.74343930	      1.15173218	     -0.09830788	     -1.43376426	     -2.88460113	    -20.05950784	      0.42543938	      0.05970530	    -17.36968611	      0.00000000	      0.44441684	     -6.48866082	     -7.28885795	      1.69578186	      3.82021761	     -3.65490511	      0.00000000	     -3.20321843	      0.71298846	     -6.32400037	     55.31009825	     -3.58578672	     23.51538457	     66.38705390	     68.14927538	     64.29708523	     -4.38128896	     33.56004995	     52.23023230	     23.72585396
